<svg xmlns="http://www.w3.org/2000/svg" width="37" height="37" fill="none"><path fill="#C3E8F1" d="M29.292 9.25H7.708a4.625 4.625 0 0 0-4.625 4.625v4.195l10.541 3.513h9.752l10.54-3.513v-4.195a4.625 4.625 0 0 0-4.624-4.625Z"/><path fill="#027794" d="M15.417 9.25V7.708h6.166V9.25h3.084V7.708a3.087 3.087 0 0 0-3.084-3.083h-6.166a3.087 3.087 0 0 0-3.084 3.083V9.25h3.084Zm-1.793 12.333L3.084 18.07v9.68a4.63 4.63 0 0 0 4.624 4.625h21.584a4.63 4.63 0 0 0 4.625-4.625v-9.68l-10.541 3.513h-9.752Z"/></svg>