<svg xmlns="http://www.w3.org/2000/svg" width="37" height="37" fill="none"><path fill="#027794" d="m27.344 22.542-3.74 3.439a17.889 17.889 0 0 1-6.627 3.654l.992 4.63a1.542 1.542 0 0 0 2.265 1.02l6.021-3.396a4.679 4.679 0 0 0 2.12-5.093l-1.031-4.254ZM11.2 13.53l3.22-3.823-4.015-.969a4.281 4.281 0 0 0-5.222 2.093l-3.392 6.012a1.542 1.542 0 0 0 1.02 2.265l4.737 1.016a19.866 19.866 0 0 1 3.652-6.594Zm14.597.063a2.313 2.313 0 1 0 0-4.626 2.313 2.313 0 0 0 0 4.626Z"/><path fill="#C3E8F1" d="M34.843 3.179a1.542 1.542 0 0 0-1.099-1.1A17.342 17.342 0 0 0 16.14 7.666l-4.939 5.865a19.943 19.943 0 0 0-4.507 10.345 1.542 1.542 0 0 0 .438 1.29l4.78 4.78a1.54 1.54 0 0 0 1.224.445 18.264 18.264 0 0 0 10.468-4.409l5.647-5.193a17.274 17.274 0 0 0 5.592-17.61Zm-9.045 10.413a2.313 2.313 0 1 1 0-4.626 2.313 2.313 0 0 1 0 4.626Z"/></svg>