<svg xmlns="http://www.w3.org/2000/svg" width="37" height="37" fill="none"><path fill="#0388A9" d="M9.25 25.438a5.396 5.396 0 1 1 5.396-5.396 5.402 5.402 0 0 1-5.396 5.395Z"/><path fill="#C3E8F1" d="M13.32 23.544a5.321 5.321 0 0 1-8.14 0 7.69 7.69 0 0 0-3.638 6.518 1.542 1.542 0 0 0 1.541 1.542h12.334a1.542 1.542 0 0 0 1.541-1.541 7.69 7.69 0 0 0-3.638-6.519Zm14.43 1.893a5.396 5.396 0 1 1 5.396-5.395 5.402 5.402 0 0 1-5.396 5.395Z"/><path fill="#027794" d="M31.82 23.544a5.321 5.321 0 0 1-8.14 0 7.691 7.691 0 0 0-3.638 6.518 1.542 1.542 0 0 0 1.541 1.542h12.334a1.542 1.542 0 0 0 1.541-1.541 7.69 7.69 0 0 0-3.638-6.519ZM26.527 8.93l-3.083-3.082a1.541 1.541 0 0 0-2.18 2.18l.452.451h-6.432l.452-.452a1.541 1.541 0 0 0-2.18-2.18l-3.083 3.084a1.542 1.542 0 0 0 0 2.18l3.083 3.083a1.541 1.541 0 0 0 2.18-2.18l-.452-.451h6.432l-.452.451a1.541 1.541 0 0 0 2.18 2.18l3.084-3.083a1.544 1.544 0 0 0 0-2.18Z"/></svg>